<svg xmlns="http://www.w3.org/2000/svg" xmlns:xlink="http://www.w3.org/1999/xlink" version="1.1" width="256" height="256" viewBox="0 0 256 256" xml:space="preserve">
<g style="stroke: none; stroke-width: 0; stroke-dasharray: none; stroke-linecap: butt; stroke-linejoin: miter; stroke-miterlimit: 10; fill: none; fill-rule: nonzero; opacity: 1;" transform="translate(1.4065934065934016 1.4065934065934016) scale(2.81 2.81)">
	<circle cx="38.915" cy="51.245" r="38.915" style="stroke: none; stroke-width: 1; stroke-dasharray: none; stroke-linecap: butt; stroke-linejoin: miter; stroke-miterlimit: 10; fill: rgb(255,100,100); fill-rule: nonzero; opacity: 1;" transform="  matrix(1 0 0 1 0 0) "/>
	<path d="M 89.862 11.184 c -0.266 -0.59 -0.874 -0.961 -1.514 -0.914 l -9.352 0.576 l 0.577 -9.351 c 0.04 -0.646 -0.324 -1.249 -0.914 -1.515 c -0.585 -0.263 -1.282 -0.139 -1.74 0.319 l -6.392 6.391 c -0.269 0.269 -0.43 0.626 -0.453 1.005 l -0.648 10.521 L 37.318 50.323 c -0.608 0.608 -0.608 1.593 0 2.202 c 0.304 0.304 0.702 0.456 1.101 0.456 c 0.398 0 0.797 -0.152 1.101 -0.456 l 32.107 -32.106 l 10.521 -0.648 c 0.378 -0.023 0.736 -0.184 1.005 -0.453 l 6.392 -6.391 C 90.002 12.467 90.129 11.774 89.862 11.184 z" style="stroke: none; stroke-width: 1; stroke-dasharray: none; stroke-linecap: butt; stroke-linejoin: miter; stroke-miterlimit: 10; fill: rgb(70,70,85); fill-rule: nonzero; opacity: 1;" transform=" matrix(1 0 0 1 0 0) " stroke-linecap="round"/>
	<path d="M 38.724 58.325 c -1.925 0 -3.735 -0.75 -5.096 -2.111 c -1.361 -1.36 -2.111 -3.171 -2.111 -5.096 c 0 -1.925 0.75 -3.734 2.111 -5.096 c 0.854 -0.854 1.909 -1.462 3.136 -1.807 c 0.824 -0.234 1.687 0.25 1.92 1.079 c 0.232 0.828 -0.25 1.687 -1.078 1.919 c -0.706 0.199 -1.304 0.538 -1.776 1.011 c -0.773 0.773 -1.199 1.801 -1.199 2.894 c 0 1.094 0.426 2.121 1.199 2.894 c 1.547 1.547 4.241 1.547 5.788 0 c 0.472 -0.472 0.812 -1.07 1.01 -1.776 c 0.233 -0.828 1.095 -1.31 1.92 -1.079 c 0.828 0.233 1.311 1.093 1.078 1.92 c -0.344 1.226 -0.951 2.281 -1.806 3.136 C 42.459 57.575 40.649 58.325 38.724 58.325 z" style="stroke: none; stroke-width: 1; stroke-dasharray: none; stroke-linecap: butt; stroke-linejoin: miter; stroke-miterlimit: 10; fill: rgb(255,255,255); fill-rule: nonzero; opacity: 1;" transform=" matrix(1 0 0 1 0 0) " stroke-linecap="round"/>
	<path d="M 38.724 69.624 c -4.943 0 -9.59 -1.926 -13.085 -5.421 c -7.215 -7.215 -7.215 -18.955 0 -26.17 c 4.744 -4.744 11.712 -6.535 18.187 -4.678 c 0.827 0.238 1.304 1.1 1.066 1.926 c -0.237 0.826 -1.099 1.305 -1.926 1.067 c -5.383 -1.545 -11.18 -0.057 -15.125 3.887 c -2.907 2.907 -4.508 6.773 -4.508 10.883 c 0 4.111 1.601 7.976 4.508 10.883 s 6.772 4.509 10.883 4.509 c 4.111 0 7.976 -1.602 10.883 -4.509 c 3.944 -3.943 5.433 -9.739 3.887 -15.125 c -0.237 -0.827 0.24 -1.689 1.066 -1.926 c 0.823 -0.236 1.689 0.239 1.926 1.067 c 1.859 6.475 0.067 13.444 -4.678 18.187 C 48.314 67.698 43.667 69.624 38.724 69.624 z" style="stroke: none; stroke-width: 1; stroke-dasharray: none; stroke-linecap: butt; stroke-linejoin: miter; stroke-miterlimit: 10; fill: rgb(255,255,255); fill-rule: nonzero; opacity: 1;" transform=" matrix(1 0 0 1 0 0) " stroke-linecap="round"/>
	<path d="M 38.724 80.922 c -7.961 0 -15.446 -3.1 -21.074 -8.729 c -11.621 -11.62 -11.621 -30.528 0 -42.149 c 9.34 -9.34 23.447 -11.428 35.107 -5.192 c 0.758 0.405 1.045 1.349 0.64 2.107 c -0.406 0.759 -1.353 1.044 -2.107 0.639 c -10.442 -5.582 -23.074 -3.714 -31.438 4.648 c -10.406 10.406 -10.406 27.339 0 37.745 c 5.041 5.041 11.743 7.817 18.873 7.817 c 7.129 0 13.831 -2.776 18.873 -7.817 c 8.362 -8.363 10.231 -20.996 4.647 -31.437 c -0.405 -0.759 -0.119 -1.702 0.64 -2.107 c 0.754 -0.405 1.701 -0.12 2.107 0.639 c 6.234 11.659 4.147 25.768 -5.193 35.108 C 54.17 77.822 46.685 80.922 38.724 80.922 z" style="stroke: none; stroke-width: 1; stroke-dasharray: none; stroke-linecap: butt; stroke-linejoin: miter; stroke-miterlimit: 10; fill: rgb(255,255,255); fill-rule: nonzero; opacity: 1;" transform=" matrix(1 0 0 1 0 0) " stroke-linecap="round"/>
</g>
</svg>