<svg xmlns="http://www.w3.org/2000/svg" xmlns:xlink="http://www.w3.org/1999/xlink" version="1.1" width="256" height="256" viewBox="0 0 256 256" xml:space="preserve">
<g style="stroke: none; stroke-width: 0; stroke-dasharray: none; stroke-linecap: butt; stroke-linejoin: miter; stroke-miterlimit: 10; fill: none; fill-rule: nonzero; opacity: 1;" transform="translate(1.4065934065934016 1.4065934065934016) scale(2.81 2.81)">
	<path d="M 73.729 43.994 C 69.162 36.149 57.886 31.08 45 31.08 s -24.163 5.069 -28.729 12.915 c -0.362 0.622 -0.362 1.39 0 2.012 C 20.837 53.851 32.114 58.92 45 58.92 s 24.162 -5.069 28.729 -12.914 C 74.091 45.384 74.091 44.616 73.729 43.994 z M 45 54.92 c -3.792 0 -6.878 -4.325 -6.878 -9.643 s 3.085 -9.643 6.878 -9.643 c 3.793 0 6.878 4.326 6.878 9.643 S 48.793 54.92 45 54.92 z M 20.376 45 c 3.162 -4.476 9.388 -7.812 16.82 -9.205 c -1.898 2.457 -3.073 5.799 -3.073 9.482 c 0 3.366 0.982 6.445 2.599 8.827 C 29.501 52.66 23.469 49.379 20.376 45 z M 53.279 54.104 c 1.617 -2.382 2.599 -5.461 2.599 -8.827 c 0 -3.684 -1.175 -7.025 -3.073 -9.482 c 7.431 1.393 13.658 4.728 16.82 9.205 C 66.531 49.379 60.499 52.66 53.279 54.104 z" style="stroke: none; stroke-width: 1; stroke-dasharray: none; stroke-linecap: butt; stroke-linejoin: miter; stroke-miterlimit: 10; fill: rgb(0,0,0); fill-rule: nonzero; opacity: 1;" transform=" matrix(1 0 0 1 0 0) " stroke-linecap="round"/>
	<path d="M 45 0 C 20.187 0 0 20.187 0 45 c 0 24.813 20.187 45 45 45 c 24.813 0 45 -20.187 45 -45 C 90 20.187 69.813 0 45 0 z M 45 86 C 22.393 86 4 67.607 4 45 S 22.393 4 45 4 s 41 18.393 41 41 S 67.607 86 45 86 z" style="stroke: none; stroke-width: 1; stroke-dasharray: none; stroke-linecap: butt; stroke-linejoin: miter; stroke-miterlimit: 10; fill: rgb(0,0,0); fill-rule: nonzero; opacity: 1;" transform=" matrix(1 0 0 1 0 0) " stroke-linecap="round"/>
</g>
</svg>